<?xml version="1.0" encoding="utf-8"?>
<!-- Generator: Adobe Illustrator 25.2.1, SVG Export Plug-In . SVG Version: 6.00 Build 0)  -->
<svg version="1.1" id="Camada_1" xmlns="http://www.w3.org/2000/svg" xmlns:xlink="http://www.w3.org/1999/xlink" x="0px" y="0px"
	 viewBox="0 0 824 220" style="enable-background:new 0 0 824 220;" xml:space="preserve">
<style type="text/css">
	.st0{fill-rule:evenodd;clip-rule:evenodd;fill:#FF780C;}
	.st1{fill-rule:evenodd;clip-rule:evenodd;fill:#F15214;}
	.st2{fill-rule:evenodd;clip-rule:evenodd;fill:#002474;}
</style>
<g>
	<path class="st0" d="M189.94,40.27c-76.92,15.87-140.78,16.5-173.9-2.06c43.58,10,92.66,11.9,159.34-12.01
		C231.29,7,278.6,0.92,311.94,27.9c18.24,14.81,42.94,30.78,73.19,39.19c24.86,6.93,52.86,7.99,88.93,5.82
		c-54.09,30.04-100.24,10.58-136.14-17.19C314.5,37.68,266.92,24.41,189.94,40.27L189.94,40.27z"/>
	<path class="st1" d="M656.98,19.96C586.46,8.01,535.41,35.3,464.83,76.34c27.42,2.06,69.35-9.73,119.87-29.72
		c35.37-11.9,62.52-17.67,114.59-10.42c52.06,7.3,103.33,9.2,112.72-2.75C791.94,45.51,727.5,31.92,656.98,19.96L656.98,19.96z"/>
	<path class="st2" d="M97.39,129.97l-17.87-0.53c-4.32-9.57-10.62-15.92-20.91-16.03c-16.91-0.16-28.06,10.42-21.12,20.94
		c4.8,7.3,14.35,8.04,27.1,11.05c12.16,2.86,27.53,7.88,32.27,19.15c4.75,11.21,2.83,33.43-14.99,41.57
		c-27.69,12.64-65.29,2.8-69.35-31.2h19.79c10.3,31.2,63.27,11.58,40.49-4.39c-10.08-7.09-28.33-7.3-42.68-15.23
		c-11.2-6.19-21.39-17.93-14.67-35.96c4.75-12.85,19.74-23.17,43.37-22.85C77.33,96.7,96.32,110.51,97.39,129.97L97.39,129.97z
		 M182.69,123.89v53.31c0,18.25-15.04,33.16-33.45,33.16h-7.68c-18.35,0-33.39-14.91-33.39-33.16v-53.31h22.35v53.42
		c0,8.09,6.72,14.76,14.88,14.76l0,0c8.22,0,14.88-6.66,14.88-14.76v-42.36c0-5.76,2.88-11.05,9.5-11.05H182.69z M215.98,100.25
		v108.79h-22.35v-97.79c0-5.76,2.88-11,9.5-11H215.98z M329.76,209.04h-23.53l-8.06-22.37h-43.53l-8.32,22.37h-22.51l36.17-100.38
		c1.81-4.97,5.76-9.1,9.98-9.1h18.35L329.76,209.04z M291.57,168.21l-14.78-41.09l-15.26,41.09H291.57z M642.26,123.36v85.42H619.9
		v-74.36c0-5.76,2.88-11.05,9.5-11.05H642.26z M464.24,208.88v-53.31c0-18.19-15.04-33.11-33.45-33.11h-7.68
		c-8.32,0-15.95,3.07-21.82,8.09c-5.87-5.02-13.55-8.09-21.87-8.09h-7.68c-18.35,0-33.39,14.91-33.39,33.11v53.31h22.35v-53.37
		c0-8.14,6.72-14.76,14.88-14.76l0,0c9.39,0,14.14,6.29,14.14,14.81v53.31h22.35l0.53-57.28c1.76-6.24,7.52-10.84,14.35-10.84l0,0
		c8.22,0,14.88,6.61,14.88,14.76v42.36c0,5.76,2.88,11,9.5,11H464.24z M512.84,137.91c10.88,0,19.74,8.94,19.84,19.99H493
		C493.1,146.84,501.96,137.91,512.84,137.91L512.84,137.91z M552.9,171.65l-60.17-0.21c-0.85,21.37,25.98,29.35,39.26,12.59
		l18.99,0.21c-12.86,39.14-76.6,32-76.6-11.48v-13.7C474.38,113.79,554.24,102.36,552.9,171.65L552.9,171.65z M518.18,99.72
		l-11.79,16.77h12.22l16.91-16.77H518.18z M599.53,125.21h3.79c1.65,0,3.31,0.11,4.91,0.32v19.78c-0.37-0.05-0.8-0.05-1.23-0.05
		h-4.59c-10.35,0-18.88,8.41-18.88,18.72v43.9c0,0.53,0.05,1,0.05,1.48h-20.75v-47.81C562.83,141.55,579.36,125.21,599.53,125.21
		L599.53,125.21z M642.26,99.83v16.13H619.9v-5.08c0-5.76,2.88-11.05,9.5-11.05H642.26z M692.19,122.62h1.97
		c16.22,0,31.31,9.04,35.37,23.54H709.9c-4.11-4.18-9.87-6.82-16.16-6.82h-1.12c-29.98,0-29.61,54.16,0,54.16h1.12
		c7.68,0,14.51-3.86,18.56-9.78h19.68c-5.28,15.71-20.27,27.08-37.82,27.08h-1.97c-21.98,0-39.96-17.82-39.96-39.61v-8.94
		C652.23,140.44,670.21,122.62,692.19,122.62L692.19,122.62z M781.59,122.2c-20.86-2.59-36.27,7.56-41.98,24.38h22.14
		c3.04-7.77,14.78-9.68,22.3-6.66c6.67,2.64,7.84,9.41,2.51,13.75c-5.55,4.55-27.37,2.17-38.14,10.47
		c-17.02,13.22-13.23,38.24,9.66,44.96c11.1,3.23,25.5,2.59,34.51-3.86l3.41,4.5h15.31v-61.25
		C811.31,133.15,802.4,124.79,781.59,122.2L781.59,122.2z M769.06,172.39c16.75-2.86,16.38-3.97,21.71-6.72v11.74
		c0,14.07-10.24,18.51-20.86,17.61C759.24,194.07,752.31,175.19,769.06,172.39L769.06,172.39z"/>
</g>
</svg>
