<svg width="1402" height="346" viewBox="0 0 1402 346" fill="none" xmlns="http://www.w3.org/2000/svg">
<path d="M154.666 21.9689C142.133 24.1022 121.866 31.8356 110.4 38.6356C90.5329 50.5022 70.6663 72.7689 61.7329 93.4356L58.1329 101.702L45.9996 105.836C39.4663 108.236 29.1996 112.502 23.3329 115.569C14.3996 120.236 12.6663 121.702 12.2663 124.902C11.9996 127.302 12.5329 128.769 13.9996 129.302C15.0663 129.836 23.5996 128.236 32.6663 125.969C41.7329 123.702 50.1329 121.836 51.0663 121.836C52.5329 121.836 52.6663 123.302 51.7329 129.436C49.9996 139.436 51.4663 159.436 54.7996 172.369C58.2663 186.102 67.8663 205.702 77.0663 217.702C85.1996 228.369 101.2 242.902 108.8 246.502C113.2 248.636 113.733 248.636 116.133 246.369C117.466 245.169 118.666 243.569 118.666 243.036C118.666 242.369 115.066 237.969 110.666 233.036C99.5996 220.902 91.5996 207.302 86.5329 192.502C79.1996 171.036 79.5996 140.236 87.5996 120.369L89.4663 115.436L110.133 114.502C154.133 112.369 201.2 118.502 236.4 130.769C265.2 140.769 283.866 153.969 292 169.969C294.4 174.502 294.8 177.302 294.4 184.636C294 192.502 293.333 194.636 288.666 201.169C282 211.036 268 221.702 249.066 231.836C233.466 240.102 230.666 243.302 235.333 247.169C239.333 250.502 276.4 235.302 296 222.102C364 176.369 334.933 115.436 234.666 93.4356C226.266 91.5689 213.6 89.3022 206.666 88.2356C189.733 85.9689 134.266 86.2356 117.733 88.7689C110.933 89.8356 105.333 90.2356 105.333 89.8356C105.333 88.2356 123.066 71.8356 129.333 67.5689C168.4 41.0356 220.933 41.7022 259.333 69.1689C268.266 75.4356 270.4 76.2356 273.066 73.5689C276.133 70.5022 274.533 67.1689 265.333 57.9689C249.6 42.2356 231.466 31.4356 209.866 25.1689C200.266 22.2356 194.666 21.4356 180 21.1689C170.133 20.9022 158.666 21.1689 154.666 21.9689Z" fill="#CE1C30"/>
<path d="M419.067 131.166C407.067 136.632 396.267 144.232 394 148.632C392.267 151.832 392 165.299 392 236.499V320.499L395.333 321.832C409.467 327.166 447.867 329.566 462.667 325.966C483.733 320.899 500.4 308.099 508.667 291.166C515.067 277.566 516.4 269.432 515.6 249.832C514.533 224.499 508.267 209.832 493.867 198.766C479.067 187.432 451.067 184.499 431.2 192.099C429.6 192.632 429.333 187.966 429.333 159.966C429.333 141.966 428.933 127.166 428.4 127.166C427.733 127.299 423.6 129.032 419.067 131.166ZM463.733 221.566C473.733 226.632 479.733 243.032 478.133 260.499C476.933 273.699 473.733 281.566 466.8 288.499C459.467 295.832 452.533 298.099 439.333 297.566L430 297.166L429.6 259.566L429.333 222.099L433.6 220.632C444.533 217.299 456.133 217.566 463.733 221.566Z" fill="#CE1C30"/>
<path d="M868.133 132.9C861.866 135.967 854.133 141.034 850.8 143.967L844.666 149.567L844.266 169.434L843.866 189.434L836.933 188.234C827.6 186.634 810.4 188.1 800.666 191.434C772.666 200.634 756.933 224.634 756.8 258.5C756.8 280.634 762 295.7 774.266 308.634C793.066 328.367 825.866 333.3 869.733 323.034L881.333 320.234V223.7C881.333 170.634 880.933 127.167 880.4 127.167C879.733 127.167 874.266 129.834 868.133 132.9ZM841.733 218.634C843.866 219.3 844 222.367 844 257.834V296.234L841.066 297.034C839.333 297.434 833.733 297.834 828.533 297.834C805.2 297.834 793.466 282.767 794.933 254.5C796.133 232.5 803.866 221.3 820.4 217.834C825.6 216.767 836.4 217.167 841.733 218.634Z" fill="#CE1C30"/>
<path d="M650.267 189.168C644.533 190.101 639.333 191.301 638.933 191.835C637.733 192.901 637.733 218.635 638.8 219.701C639.2 220.235 642.8 219.835 646.8 218.901C650.8 217.968 660.933 217.301 669.333 217.168C682.8 217.168 685.333 217.568 690.4 220.235C696.533 223.568 701.2 231.168 701.333 238.101V241.701L689.733 240.901C661.067 239.035 637.6 248.368 629.067 264.901C620.667 281.568 627.067 307.835 642 317.968C658.667 329.301 690.667 331.301 725.333 323.168L737.333 320.235V281.435C737.333 259.968 736.667 238.101 736 232.635C732.933 208.901 720.133 194.635 697.067 189.168C686.8 186.768 664.533 186.768 650.267 189.168ZM701.067 281.968C701.467 299.968 702.267 299.168 686.133 299.168C666.533 299.168 659.2 293.568 659.867 279.035C660 274.768 665.6 268.901 671.2 267.301C673.467 266.635 681.067 266.101 688 266.235L700.667 266.501L701.067 281.968Z" fill="#CE1C30"/>
<path d="M948.666 188.9C931.866 193.167 919.199 203.034 911.599 217.567C905.199 229.834 902.666 240.9 902.666 257.834C902.666 294.5 917.199 315.834 948.666 325.3C960.399 328.9 987.599 328.5 1002 324.634C1007.73 323.034 1013.2 321.167 1014 320.367C1015.47 318.9 1015.87 294.634 1014.4 293.167C1013.87 292.634 1009.33 293.167 1004.4 294.5C992.266 297.567 971.466 298.634 962.799 296.5C953.199 294.234 945.733 288.367 941.866 280.1C936.133 267.567 932.933 268.5 980.666 268.5H1022.53L1023.47 263.7C1024 261.034 1024 253.034 1023.6 245.967C1022 217.167 1010.8 199.3 989.199 190.9C980.266 187.434 958.533 186.367 948.666 188.9ZM976.799 217.7C983.333 220.634 987.733 227.167 988.799 235.7L989.733 241.834H964.133C950.133 241.834 938.666 241.434 938.666 240.767C938.666 236.767 942.133 228.9 945.733 224.9C953.866 215.7 965.999 212.767 976.799 217.7Z" fill="#CE1C30"/>
<path d="M1074.93 189.167C1053.07 195.301 1042.67 207.567 1042.67 227.167C1042.67 246.767 1051.2 256.767 1076.67 267.301C1096 275.301 1099.87 277.701 1101.2 282.367C1105.73 299.701 1083.87 303.301 1044.4 291.701C1041.87 291.034 1041.47 291.567 1040.53 297.167C1039.2 306.367 1040.67 318.101 1043.6 320.234C1051.33 325.834 1082 329.834 1098.27 327.434C1117.73 324.367 1131.87 314.634 1136.53 300.767C1139.07 293.567 1139.33 278.234 1137.07 270.901C1133.6 259.167 1122 250.367 1097.6 240.367C1080.67 233.567 1076.4 227.967 1082.53 220.367C1084.8 217.567 1086.4 217.167 1096.53 216.634C1106.4 216.234 1124.27 218.634 1131.2 221.301C1133.33 222.101 1134.67 210.901 1133.6 200.367L1132.93 193.834L1124.13 191.034C1112.4 187.301 1085.2 186.234 1074.93 189.167Z" fill="#CE1C30"/>
<path d="M1200 189.434C1173.47 196.767 1157.47 218.767 1155.2 251.167C1151.6 302.101 1183.6 333.701 1232.67 327.434C1244.93 325.834 1260 321.301 1260 319.167C1260 318.634 1258 314.767 1255.47 310.767C1253.07 306.634 1250.27 301.301 1249.33 298.901C1248.27 296.501 1247.47 294.367 1247.2 294.101C1247.07 293.834 1243.47 294.634 1239.2 295.967C1233.87 297.434 1228.67 297.967 1222.27 297.434C1210.27 296.634 1203.6 292.234 1198 281.167C1194.27 273.701 1194 272.501 1194 257.301C1194 242.234 1194.27 240.634 1197.73 233.434C1203.2 222.501 1209.2 218.634 1222.27 218.101C1230.8 217.567 1239.2 218.767 1245.6 221.167C1246.8 221.701 1248 220.234 1249.2 216.901C1250.13 214.101 1253.07 208.234 1255.6 203.967C1260.8 194.901 1261.07 195.167 1248 191.034C1235.73 187.034 1211.87 186.234 1200 189.434Z" fill="#CE1C30"/>
<path d="M1308.4 189.167C1279.87 196.9 1264.67 218.234 1263.07 252.634C1261.87 278.367 1267.2 295.567 1280.67 309.7C1294.13 323.834 1314.13 330.234 1336.27 327.434C1363.73 323.967 1380.67 309.567 1388.8 282.5C1392.53 270.1 1392.27 244.234 1388.13 231.167C1384.27 218.767 1380.13 211.567 1372.53 204.1C1365.07 196.634 1356 191.834 1345.2 189.167C1334.67 186.767 1317.6 186.767 1308.4 189.167ZM1335.33 217.967C1347.87 221.434 1353.73 234.234 1353.73 257.834C1353.6 279.167 1349.73 289.567 1339.6 295.3C1332.53 299.167 1318.67 298.5 1312.27 293.967C1303.6 287.834 1298.93 271.434 1300.4 251.967C1301.87 233.034 1305.87 224.634 1316 219.434C1322.53 216.234 1327.33 215.834 1335.33 217.967Z" fill="#CE1C30"/>
<path d="M542.933 189.434L538.666 189.967L538.933 257.567L539.333 325.167L546.666 326.234C550.666 326.9 558.933 326.9 565.066 326.5L575.999 325.567V289.3C575.999 249.434 577.066 241.567 583.733 231.834C589.199 223.7 599.199 219.167 611.466 219.167H621.066L621.999 210.5C622.533 205.7 622.533 199.167 622.133 195.967C621.199 190.234 620.933 189.967 615.866 189.167C603.599 187.034 589.599 191.834 579.733 201.434L573.599 207.434L572.133 200.367C569.866 189.567 569.599 189.434 557.733 189.034C551.999 188.9 545.333 189.034 542.933 189.434Z" fill="#CE1C30"/>
<path d="M188.666 225.568L175.333 233.301L174.933 280.235L174.666 327.168H189.066C198.533 327.168 203.999 326.635 205.066 325.568C206.266 324.368 206.666 310.635 206.666 271.701C206.666 225.301 206.399 219.301 204.533 218.635C203.333 218.235 202.399 217.835 202.266 217.835C202.133 217.835 195.999 221.301 188.666 225.568Z" fill="#CE1C30"/>
<path d="M155.333 244.767C150.266 247.834 145.599 250.901 145.066 251.701C144.533 252.501 143.999 269.434 143.999 289.301C143.999 330.767 142.799 327.167 157.466 327.167H166.666V283.167C166.666 258.901 166.266 239.167 165.733 239.167C165.066 239.167 160.533 241.701 155.333 244.767Z" fill="#CE1C30"/>
</svg>
