<svg width="237" height="33" viewBox="0 0 237 33" fill="none" xmlns="http://www.w3.org/2000/svg">
<path fill-rule="evenodd" clip-rule="evenodd" d="M210.17 0.952895H220.639L236.373 21.8862H225.903L233.739 32.3516H220.639L212.803 21.8862H218.006L210.17 11.4249H218.006L210.17 0.952895Z" fill="#00985E"/>
<path fill-rule="evenodd" clip-rule="evenodd" d="M210.17 0.952895H199.703L183.959 21.8862H194.439L186.6 32.3516H199.703L207.531 21.8862H202.266L210.17 11.4249H202.336L210.17 0.952895Z" fill="#00985E"/>
<path fill-rule="evenodd" clip-rule="evenodd" d="M11.855 3.08518H0.681641V20.8838C0.681641 29.4945 7.08831 32.8398 15.2043 32.8398C24.0243 32.8398 29.867 29.7052 29.867 20.2412V3.08518H18.9016V20.4545C18.9016 23.3012 18.267 25.2932 15.3483 25.2932C12.6376 25.2932 11.855 23.2345 11.855 20.4545V3.08518Z" fill="#00985E"/>
<path fill-rule="evenodd" clip-rule="evenodd" d="M32.6426 32.3398H43.1746V19.7372C43.1746 18.5278 43.1746 16.8252 45.0919 16.8252C46.9439 16.8252 46.9439 18.5278 46.9439 19.7372V32.3398H57.4772V17.1745C57.4772 12.9118 55.4146 9.98918 49.7866 9.98918C46.8079 9.98918 43.9586 11.1998 42.6786 14.2532H42.6092V10.4905H32.6426V32.3398Z" fill="#00985E"/>
<path fill-rule="evenodd" clip-rule="evenodd" d="M71.6486 0.951842H61.1152V8.20784H71.6486V0.951842ZM61.1152 32.3398H71.6486V10.4905H61.1152V32.3398Z" fill="#00985E"/>
<path fill-rule="evenodd" clip-rule="evenodd" d="M75.1367 32.3398H85.6727V19.7372C85.6727 18.5278 85.6727 16.8252 87.5981 16.8252C89.3741 16.8252 89.3741 18.5278 89.3741 19.7372V32.3398H99.9767V19.7372C99.9767 18.5278 99.9767 16.8252 101.755 16.8252C103.67 16.8252 103.67 18.5278 103.67 19.7372V32.3398H114.217V19.2465C114.217 14.9705 114.217 9.98918 106.53 9.98918C103.89 9.98918 100.259 11.1998 99.5487 13.7612H99.4821C98.6194 11.1225 95.5607 9.98918 92.6487 9.98918C89.2994 9.98918 86.4514 11.1998 85.1727 14.2532H85.0994V10.4905H75.1367V32.3398Z" fill="#00985E"/>
<path fill-rule="evenodd" clip-rule="evenodd" d="M141.264 23.9425V22.6612C141.264 15.2585 138.271 9.99184 129.799 9.99184C120.973 9.99184 116.277 13.6918 116.277 21.0212C116.277 28.5678 120.973 32.8398 129.799 32.8398C133.499 32.8398 136.851 32.4092 139.625 31.5585V25.9318C137.98 26.7892 135.347 27.2905 132.5 27.2905C129.375 27.2905 126.884 26.6465 126.663 23.9425H141.264ZM126.663 19.3172C126.524 17.6078 127.023 15.0452 129.517 15.0452C131.867 15.0452 132.145 17.6745 132.145 19.3172H126.663Z" fill="#00985E"/>
<path fill-rule="evenodd" clip-rule="evenodd" d="M159.729 21.3118C159.729 23.3705 159.371 25.7878 157.174 25.7878C154.822 25.7878 154.465 23.3705 154.465 21.0945C154.465 18.8185 154.822 16.5385 157.03 16.5385C159.371 16.5385 159.729 18.8185 159.729 21.3118ZM169.978 32.3425V0.954513H159.447V13.3398H159.371C157.738 10.9852 155.599 9.99318 152.757 9.99318C146.21 9.99318 143.506 15.1838 143.506 21.0945C143.506 27.3625 146.065 32.8398 153.115 32.8398C156.529 32.8398 158.665 31.6345 160.089 28.3532H160.159V32.3425H169.978Z" fill="#00985E"/>
</svg>
