<svg width="1856" height="507" viewBox="0 0 1856 507" fill="none" xmlns="http://www.w3.org/2000/svg">
<path d="M227.789 105.08C257.524 168.369 208.432 228.028 208.432 228.028C131.551 325.834 228.564 399.652 228.564 399.652C216.806 338.537 243.271 304.265 254.329 292.583C257.184 289.578 258.62 287.441 258.62 287.441C343.005 191.828 227.789 105.08 227.789 105.08Z" fill="#7F91BA"/>
<path d="M1774.81 224.005V376.858C1775.47 407.69 1775.47 427.123 1819.74 427.123C1834.47 427.123 1841.18 426.461 1853.24 425.119V490.128C1821.05 498.842 1792.27 500.884 1776.17 500.884C1676.28 500.884 1676.28 437.822 1676.28 409.713V55.7642H1749.59C1763.52 55.7831 1774.86 67.0685 1774.86 80.9625V81.0948V125.329H1774.81V158.315H1855.24V224.005H1774.81ZM1613.35 311.83V494.816H1537.44C1523.51 494.816 1512.2 483.512 1512.2 469.618V469.504L1512.13 284.326C1512.13 270.262 1512.13 258.201 1506.79 247.483C1499.4 232.738 1484 218.655 1458.5 218.655C1437.08 218.655 1417.61 228.712 1406.89 244.799C1400.84 253.532 1394.83 270.262 1394.83 296.424V494.816H1294.94V216.633C1294.94 215.309 1294.94 178.448 1292.94 154.951H1307.55V154.856H1362.73C1376.68 154.856 1388.59 166.198 1389.4 180.073L1389.42 180.187L1390.9 205.782C1400.35 190.243 1427.21 146.917 1500.73 146.917C1567.12 146.917 1595.26 187.162 1603.94 210.583C1611.35 231.377 1613.35 248.825 1613.35 311.83ZM1058.88 303.796V494.816H984.227C970.277 494.816 958.991 483.512 958.991 469.618V469.504V295.744C958.991 259.562 953.623 219.317 902.016 219.317C842.338 219.317 841.034 274.969 841.034 325.233V494.816H741.148V293.721C741.148 267.596 740.486 219.317 685.496 219.317C623.152 219.317 623.152 272.946 623.152 295.744V494.816H523.304V219.997C523.304 198.542 521.943 177.748 519.921 156.331H526.215V156.293H590.544C604.457 156.293 616.631 167.616 617.689 181.529V181.623H617.727L619.107 199.865C629.844 185.139 655.988 148.939 723.719 148.939C801.45 148.939 823.605 196.519 830.296 212.625C858.463 158.315 904.039 149.601 938.878 149.601C1007.25 149.601 1034.76 190.508 1042.13 203.929C1060.22 233.419 1058.88 274.288 1058.88 303.796ZM1126.66 155.65H1225.87V494.816H1126.66V155.65ZM108.582 256.179C108.582 201.226 116.615 148.939 144.139 115.424C163.572 90.6222 194.403 74.5353 233.269 74.5353C282.89 74.5353 323.778 100.679 343.892 160.338C353.948 189.828 355.971 223.343 355.971 246.821C355.971 323.891 339.204 361.433 323.117 385.554C303.665 415.743 274.837 430.487 232.607 430.487C184.347 430.487 159.564 411.697 144.782 391.622C115.973 354.061 108.582 302.454 108.582 256.179ZM0 259.562C0 303.796 6.69179 384.212 59.6593 440.525C103.931 486.782 167.579 506.914 231.265 506.914C271.491 506.914 349.922 498.181 403.532 437.822C443.078 393.607 464.533 318.522 464.533 248.145C464.533 200.565 454.496 124.8 402.871 65.8208C355.272 12.1917 284.251 0.112424 232.607 0.112424C58.3172 0.112424 0 130.849 0 259.562ZM1230.54 54.2708C1230.54 84.2706 1206.23 108.58 1176.23 108.58C1146.31 108.58 1121.98 84.2706 1121.98 54.2708C1121.98 24.2899 1146.31 -0.00100618 1176.23 -0.00100618C1206.23 -0.00100618 1230.54 24.2899 1230.54 54.2708Z" fill="#002475"/>
</svg>
